<?xml version="1.0" standalone="no"?><!DOCTYPE svg PUBLIC "-//W3C//DTD SVG 1.1//EN" "http://www.w3.org/Graphics/SVG/1.1/DTD/svg11.dtd"><svg t="1740111853898" class="icon" viewBox="0 0 1024 1024" version="1.1" xmlns="http://www.w3.org/2000/svg" p-id="1670" width="30" height="30" xmlns:xlink="http://www.w3.org/1999/xlink"><path d="M511.972778 95.839813" fill="#0D9E4D" p-id="1671"></path><path d="M942.556043 920.582237l-244.921743-244.913948c58.379019-63.639652 94.078815-148.402783 94.078815-241.364955 0-197.074583-160.327498-357.409876-357.409876-357.409876S76.893562 237.228751 76.893562 434.303334s160.327498 357.409876 357.409876 357.409876c92.960573 0 177.719106-35.697197 241.35716-94.07102l244.921743 244.913948c3.035142 3.035142 7.011246 4.552713 10.987351 4.552713s7.952208-1.517571 10.986551-4.552713C948.626527 936.485855 948.626527 926.652522 942.556043 920.582237zM107.972691 434.303334c0-179.941999 146.396343-326.330548 326.330548-326.330548s326.330548 146.389348 326.330548 326.330548-146.396343 326.330548-326.330548 326.330548S107.972691 614.245334 107.972691 434.303334zM368.275605 178.454c-93.116267 23.969749-165.851753 96.705234-189.828496 189.813706-2.13935 8.315762 2.868255 16.783621 11.184017 18.92397 1.289726 0.333974 2.595041 0.493066 3.884766 0.493066 6.919908 0 13.232828-4.651047 15.039203-11.662293 21.139068-82.151501 85.316156-146.320595 167.459662-167.475452 8.315762-2.13935 13.324166-10.607408 11.184017-18.92397C385.059226 181.31526 376.515618 176.375609 368.275605 178.454z" fill="#0D9E4D" p-id="1672"></path></svg>